<svg width="166" height="61" viewBox="0 0 166 61" fill="none" xmlns="http://www.w3.org/2000/svg">
<path d="M5.08202 41.33C4.11402 41.33 3.28535 41.154 2.59602 40.802C1.92135 40.4353 1.40802 39.9587 1.05602 39.372C0.704015 38.7853 0.528015 38.1327 0.528015 37.414C0.528015 35.6393 1.67202 34.2753 3.96002 33.322C3.54935 32.7647 3.18268 32.2 2.86002 31.628C2.55202 31.056 2.39802 30.3887 2.39802 29.626C2.39802 28.5847 2.76468 27.756 3.49802 27.14C4.24602 26.5093 5.22135 26.194 6.42402 26.194C7.59735 26.194 8.50668 26.458 9.15202 26.986C9.79735 27.4993 10.12 28.1813 10.12 29.032C10.12 29.7507 9.82668 30.3813 9.24002 30.924C8.65335 31.4667 7.81735 31.9653 6.73202 32.42C7.01068 32.728 7.29668 33.058 7.59002 33.41C7.89802 33.7473 8.21335 34.0847 8.53602 34.422C8.93202 34.862 9.31335 35.28 9.68002 35.676C10.0613 36.072 10.4427 36.4827 10.824 36.908C11.176 36.424 11.506 35.8373 11.814 35.148C12.122 34.4587 12.364 33.7327 12.54 32.97C12.6573 32.4127 12.4447 32.0533 11.902 31.892L11.748 31.826V31.606H14.234V31.826L14.036 31.892C13.552 32.0533 13.2367 32.3907 13.09 32.904C12.87 33.7253 12.5987 34.5027 12.276 35.236C11.9533 35.9693 11.5793 36.6367 11.154 37.238L13.508 39.724C13.6987 39.9293 13.8893 40.098 14.08 40.23C14.2707 40.362 14.4833 40.494 14.718 40.626L15.026 40.78V41H10.582L9.10802 39.416C8.82935 39.724 8.51402 40.0247 8.16202 40.318C7.81002 40.6113 7.38468 40.8533 6.88602 41.044C6.38735 41.2347 5.78602 41.33 5.08202 41.33ZM6.46802 32.134C7.04002 31.6207 7.45068 31.1073 7.70002 30.594C7.96402 30.066 8.09602 29.4867 8.09602 28.856C8.09602 28.284 7.94935 27.822 7.65602 27.47C7.36268 27.1033 6.95935 26.92 6.44602 26.92C5.96202 26.92 5.55868 27.096 5.23602 27.448C4.91335 27.8 4.75202 28.2473 4.75202 28.79C4.75202 29.1273 4.81068 29.4793 4.92802 29.846C5.06002 30.2127 5.28735 30.6307 5.61002 31.1C5.69802 31.2173 5.81535 31.3567 5.96202 31.518C6.10868 31.6793 6.27735 31.8847 6.46802 32.134ZM6.35802 39.856C6.87135 39.856 7.33335 39.7827 7.74402 39.636C8.15468 39.4747 8.50668 39.2767 8.80002 39.042C8.44802 38.646 8.08135 38.2353 7.70002 37.81C7.31868 37.37 6.95935 36.952 6.62202 36.556C6.21135 36.072 5.80802 35.588 5.41202 35.104C5.03068 34.62 4.64935 34.1507 4.26802 33.696C3.88668 34.048 3.60802 34.4587 3.43202 34.928C3.25602 35.3973 3.16802 35.8887 3.16802 36.402C3.16802 37.3993 3.46135 38.228 4.04802 38.888C4.64935 39.5333 5.41935 39.856 6.35802 39.856Z" fill="white"/>
<path d="M18.484 41V40.78L18.88 40.626C19.1733 40.5087 19.3713 40.362 19.474 40.186C19.5913 40.01 19.65 39.7753 19.65 39.482V27.998C19.65 27.69 19.5913 27.448 19.474 27.272C19.3713 27.096 19.1733 26.9567 18.88 26.854L18.484 26.7V26.48H24.798C26.5873 26.48 27.878 26.81 28.67 27.47C29.462 28.1153 29.858 28.9367 29.858 29.934C29.858 30.682 29.5647 31.364 28.978 31.98C28.406 32.5813 27.416 33.0067 26.008 33.256C27.6213 33.432 28.802 33.8573 29.55 34.532C30.298 35.192 30.672 35.9987 30.672 36.952C30.672 37.4213 30.5693 37.898 30.364 38.382C30.1587 38.8513 29.8067 39.284 29.308 39.68C28.824 40.076 28.1567 40.3987 27.306 40.648C26.4553 40.8827 25.3773 41 24.072 41H18.484ZM22.906 33.234H23.852C24.8347 33.234 25.5387 33.0067 25.964 32.552C26.404 32.0973 26.624 31.3053 26.624 30.176C26.624 29.0027 26.426 28.1667 26.03 27.668C25.634 27.1693 24.9887 26.92 24.094 26.92H22.906V33.234ZM22.906 40.56H24.006C25.106 40.56 25.92 40.2667 26.448 39.68C26.9907 39.0933 27.262 38.1767 27.262 36.93C27.262 35.7567 27.0053 34.9207 26.492 34.422C25.9787 33.9233 25.1353 33.674 23.962 33.674H22.906V40.56Z" fill="white"/>
<path d="M32.5872 41V40.78L33.0492 40.626C33.3426 40.5233 33.5332 40.3913 33.6212 40.23C33.7092 40.054 33.7532 39.812 33.7532 39.504V27.998C33.7532 27.7047 33.7092 27.4773 33.6212 27.316C33.5479 27.14 33.3719 27.0007 33.0932 26.898L32.5872 26.7V26.48H38.8792C40.6099 26.48 41.9372 26.81 42.8612 27.47C43.7852 28.1153 44.2472 29.0173 44.2472 30.176C44.2472 30.8213 44.0052 31.4667 43.5212 32.112C43.0372 32.7573 42.2746 33.256 41.2332 33.608L44.2912 39.68C44.4232 39.9293 44.5699 40.1347 44.7312 40.296C44.9072 40.4427 45.1346 40.5747 45.4132 40.692L45.6992 40.802V41H41.7612L38.5052 34.07H37.0092V39.504C37.0092 39.7827 37.0532 40.01 37.1412 40.186C37.2292 40.362 37.4126 40.494 37.6912 40.582L38.2192 40.78V41H32.5872ZM37.0092 33.63H38.0652C39.1212 33.63 39.8839 33.3513 40.3532 32.794C40.8226 32.222 41.0572 31.3787 41.0572 30.264C41.0572 29.1347 40.8372 28.2987 40.3972 27.756C39.9572 27.1987 39.2165 26.92 38.1752 26.92H37.0092V33.63Z" fill="white"/>
<path d="M53.6644 41.396C52.5498 41.396 51.5598 41.198 50.6944 40.802C49.8438 40.406 49.1764 39.7827 48.6924 38.932C48.2231 38.0667 47.9884 36.93 47.9884 35.522V27.932C47.9884 27.3747 47.7024 27.008 47.1304 26.832L46.6464 26.7V26.48H52.7404V26.7L52.1024 26.876C51.5598 27.008 51.2884 27.3747 51.2884 27.976V36.094C51.2884 37.458 51.5744 38.47 52.1464 39.13C52.7184 39.7753 53.5398 40.098 54.6104 40.098C55.7251 40.098 56.6051 39.7533 57.2504 39.064C57.9104 38.3747 58.2404 37.3993 58.2404 36.138V28.064C58.2404 27.7707 58.1891 27.514 58.0864 27.294C57.9984 27.0593 57.8078 26.9053 57.5144 26.832L56.9644 26.7V26.48H60.0444V26.7L59.4504 26.854C59.1718 26.9127 58.9884 27.052 58.9004 27.272C58.8124 27.492 58.7684 27.7487 58.7684 28.042V36.094C58.7684 37.1647 58.5558 38.1033 58.1304 38.91C57.7051 39.702 57.1111 40.318 56.3484 40.758C55.5858 41.1833 54.6911 41.396 53.6644 41.396Z" fill="white"/>
<path d="M66.5978 41.396C65.7912 41.396 64.9698 41.2933 64.1338 41.088C63.2978 40.8973 62.6012 40.6407 62.0438 40.318L62.1538 37.326H62.3738L63.0558 38.756C63.2612 39.1667 63.4812 39.5333 63.7158 39.856C63.9505 40.164 64.2732 40.406 64.6838 40.582C64.9772 40.7287 65.2558 40.8313 65.5198 40.89C65.7985 40.934 66.1065 40.956 66.4438 40.956C67.3385 40.956 68.0425 40.714 68.5558 40.23C69.0838 39.746 69.3478 39.1227 69.3478 38.36C69.3478 37.6413 69.1718 37.084 68.8198 36.688C68.4678 36.2773 67.9032 35.8813 67.1258 35.5L66.2238 35.104C64.9625 34.5467 63.9725 33.9087 63.2538 33.19C62.5498 32.4567 62.1978 31.4887 62.1978 30.286C62.1978 29.4207 62.4178 28.6727 62.8578 28.042C63.3125 27.4113 63.9358 26.9273 64.7278 26.59C65.5345 26.2527 66.4732 26.084 67.5438 26.084C68.3212 26.084 69.0545 26.1867 69.7438 26.392C70.4478 26.5973 71.0565 26.876 71.5698 27.228L71.4378 29.868H71.2178L70.3158 28.218C70.0665 27.7047 69.8172 27.3453 69.5678 27.14C69.3185 26.92 69.0325 26.766 68.7098 26.678C68.5192 26.6193 68.3432 26.5827 68.1818 26.568C68.0205 26.5387 67.8152 26.524 67.5658 26.524C66.8178 26.524 66.1872 26.744 65.6738 27.184C65.1605 27.6093 64.9038 28.1887 64.9038 28.922C64.9038 29.67 65.1018 30.2713 65.4978 30.726C65.8938 31.166 66.4732 31.562 67.2358 31.914L68.2478 32.354C69.6558 32.97 70.6678 33.63 71.2838 34.334C71.8998 35.0233 72.2078 35.918 72.2078 37.018C72.2078 38.3087 71.7165 39.3647 70.7338 40.186C69.7658 40.9927 68.3872 41.396 66.5978 41.396Z" fill="white"/>
<path d="M82.2285 41.396C80.8058 41.396 79.5152 41.11 78.3565 40.538C77.2125 39.9513 76.3032 39.086 75.6285 37.942C74.9538 36.798 74.6165 35.3973 74.6165 33.74C74.6165 32.4787 74.8218 31.3713 75.2325 30.418C75.6432 29.4647 76.2005 28.6653 76.9045 28.02C77.6232 27.3747 78.4445 26.8907 79.3685 26.568C80.3072 26.2453 81.2972 26.084 82.3385 26.084C83.1745 26.084 83.9445 26.1793 84.6485 26.37C85.3525 26.5607 86.0125 26.8247 86.6285 27.162L86.7165 29.868H86.4965L85.3965 28.108C85.2498 27.8293 85.0885 27.58 84.9125 27.36C84.7365 27.1253 84.5165 26.9493 84.2525 26.832C84.0325 26.7293 83.8125 26.656 83.5925 26.612C83.3872 26.5533 83.1232 26.524 82.8005 26.524C81.9498 26.524 81.1725 26.7513 80.4685 27.206C79.7792 27.6607 79.2218 28.416 78.7965 29.472C78.3858 30.5133 78.1805 31.9433 78.1805 33.762C78.1805 35.566 78.3785 36.996 78.7745 38.052C79.1705 39.0933 79.7058 39.8413 80.3805 40.296C81.0698 40.736 81.8398 40.956 82.6905 40.956C83.1598 40.956 83.5338 40.9267 83.8125 40.868C84.0912 40.7947 84.3698 40.692 84.6485 40.56C84.9272 40.4427 85.1398 40.274 85.2865 40.054C85.4332 39.8193 85.5652 39.57 85.6825 39.306L86.6505 37.15H86.8705L86.8045 40.296C86.1885 40.6187 85.4992 40.8827 84.7365 41.088C83.9738 41.2933 83.1378 41.396 82.2285 41.396Z" fill="white"/>
<path d="M89.2364 41V40.78L89.6764 40.604C89.9697 40.5013 90.1604 40.362 90.2484 40.186C90.351 40.01 90.4024 39.7827 90.4024 39.504V27.998C90.4024 27.7047 90.351 27.47 90.2484 27.294C90.1604 27.118 89.9697 26.9787 89.6764 26.876L89.2364 26.7V26.48H94.8244V26.7L94.4504 26.854C94.1717 26.9567 93.981 27.096 93.8784 27.272C93.7757 27.4333 93.7244 27.6607 93.7244 27.954V33.3H98.9824V27.954C98.9824 27.6607 98.931 27.4333 98.8284 27.272C98.7404 27.096 98.5497 26.9567 98.2564 26.854L97.8604 26.7V26.48H103.47V26.7L103.03 26.876C102.752 26.9787 102.561 27.118 102.458 27.294C102.356 27.47 102.304 27.7047 102.304 27.998V39.504C102.304 39.7827 102.356 40.01 102.458 40.186C102.561 40.362 102.752 40.5013 103.03 40.604L103.47 40.78V41H97.8604V40.78L98.2564 40.648C98.5497 40.5307 98.7404 40.3913 98.8284 40.23C98.931 40.054 98.9824 39.8193 98.9824 39.526V33.74H93.7244V39.526C93.7244 40.0687 93.9664 40.4427 94.4504 40.648L94.8244 40.78V41H89.2364Z" fill="white"/>
<path d="M105.767 41V40.78L106.207 40.604C106.501 40.5013 106.691 40.362 106.779 40.186C106.882 40.01 106.933 39.7753 106.933 39.482V27.998C106.933 27.7047 106.889 27.47 106.801 27.294C106.713 27.118 106.515 26.9787 106.207 26.876L105.767 26.7V26.48H111.421V26.7L110.981 26.876C110.688 26.9787 110.49 27.118 110.387 27.294C110.299 27.47 110.255 27.7047 110.255 27.998V39.482C110.255 39.7753 110.299 40.01 110.387 40.186C110.49 40.3473 110.688 40.4867 110.981 40.604L111.421 40.78V41H105.767Z" fill="white"/>
<path d="M6.48401 24V23.78L6.88002 23.626C7.17335 23.5087 7.37135 23.362 7.47402 23.186C7.59135 23.01 7.65002 22.7753 7.65002 22.482V10.998C7.65002 10.69 7.59135 10.448 7.47402 10.272C7.37135 10.096 7.17335 9.95665 6.88002 9.85398L6.48401 9.69998V9.47998H12.798C14.5873 9.47998 15.878 9.80998 16.67 10.47C17.462 11.1153 17.858 11.9367 17.858 12.934C17.858 13.682 17.5647 14.364 16.978 14.98C16.406 15.5813 15.416 16.0067 14.008 16.256C15.6213 16.432 16.802 16.8573 17.55 17.532C18.298 18.192 18.672 18.9987 18.672 19.952C18.672 20.4213 18.5693 20.898 18.364 21.382C18.1587 21.8513 17.8067 22.284 17.308 22.68C16.824 23.076 16.1567 23.3987 15.306 23.648C14.4553 23.8827 13.3773 24 12.072 24H6.48401ZM10.906 16.234H11.852C12.8347 16.234 13.5387 16.0067 13.964 15.552C14.404 15.0973 14.624 14.3053 14.624 13.176C14.624 12.0027 14.426 11.1667 14.03 10.668C13.634 10.1693 12.9887 9.91998 12.094 9.91998H10.906V16.234ZM10.906 23.56H12.006C13.106 23.56 13.92 23.2667 14.448 22.68C14.9907 22.0933 15.262 21.1767 15.262 19.93C15.262 18.7567 15.0053 17.9207 14.492 17.422C13.9787 16.9233 13.1353 16.674 11.962 16.674H10.906V23.56Z" fill="white"/>
<path d="M20.5872 24V23.78L21.0932 23.582C21.3426 23.4793 21.5112 23.3473 21.5992 23.186C21.7019 23.01 21.7532 22.7753 21.7532 22.482V10.998C21.7532 10.7047 21.7092 10.4773 21.6212 10.316C21.5479 10.14 21.3719 10.0007 21.0932 9.89798L20.5872 9.69998V9.47998H31.1252L31.2572 12.868H31.0372L30.0912 10.8C29.9592 10.536 29.8199 10.3233 29.6732 10.162C29.5266 10.0007 29.3066 9.91998 29.0132 9.91998H25.0532V16.278H27.4072C27.7006 16.278 27.9206 16.2047 28.0672 16.058C28.2286 15.8967 28.3679 15.684 28.4852 15.42L28.9252 14.54H29.1452V18.5H28.9252L28.4852 17.576C28.3532 17.312 28.2139 17.1067 28.0672 16.96C27.9206 16.7987 27.7006 16.718 27.4072 16.718H25.0532V23.56H29.4972C29.7906 23.56 30.0179 23.4867 30.1792 23.34C30.3406 23.1787 30.4726 22.9587 30.5752 22.68L31.4772 20.612H31.6972L31.5652 24H20.5872Z" fill="white"/>
<path d="M34.1103 24V23.78L34.5723 23.626C34.8657 23.5233 35.0563 23.3913 35.1443 23.23C35.2323 23.054 35.2763 22.812 35.2763 22.504V10.998C35.2763 10.7047 35.2323 10.4773 35.1443 10.316C35.071 10.14 34.895 10.0007 34.6163 9.89798L34.1103 9.69998V9.47998H40.4023C42.133 9.47998 43.4603 9.80998 44.3843 10.47C45.3083 11.1153 45.7703 12.0173 45.7703 13.176C45.7703 13.8213 45.5283 14.4667 45.0443 15.112C44.5603 15.7573 43.7977 16.256 42.7563 16.608L45.8143 22.68C45.9463 22.9293 46.093 23.1347 46.2543 23.296C46.4303 23.4427 46.6577 23.5747 46.9363 23.692L47.2223 23.802V24H43.2843L40.0283 17.07H38.5323V22.504C38.5323 22.7827 38.5763 23.01 38.6643 23.186C38.7523 23.362 38.9357 23.494 39.2143 23.582L39.7423 23.78V24H34.1103ZM38.5323 16.63H39.5883C40.6443 16.63 41.407 16.3513 41.8763 15.794C42.3457 15.222 42.5803 14.3787 42.5803 13.264C42.5803 12.1347 42.3603 11.2987 41.9203 10.756C41.4803 10.1987 40.7397 9.91998 39.6983 9.91998H38.5323V16.63Z" fill="white"/>
<path d="M51.2905 24V23.78L52.1925 23.56C52.7938 23.428 53.0945 23.0613 53.0945 22.46V9.91998H51.2245C50.6818 9.91998 50.2931 10.0667 50.0585 10.36C49.8238 10.6387 49.5745 11.0273 49.3105 11.526L48.5185 13.066H48.2985L48.4085 9.47998H61.1025L61.1905 13.066H60.9705L60.1785 11.526C59.9291 11.0273 59.6871 10.6387 59.4525 10.36C59.2178 10.0667 58.8291 9.91998 58.2865 9.91998H56.4165V22.46C56.4165 23.0613 56.7171 23.428 57.3185 23.56L58.2205 23.78V24H51.2905Z" fill="white"/>
<path d="M69.9977 24.396C69.103 24.396 68.2377 24.2347 67.4017 23.912C66.5803 23.5893 65.8397 23.1127 65.1797 22.482C64.5343 21.8367 64.021 21.0373 63.6397 20.084C63.2583 19.1307 63.0677 18.016 63.0677 16.74C63.0677 15.4787 63.2583 14.3713 63.6397 13.418C64.021 12.4647 64.5417 11.6727 65.2017 11.042C65.8617 10.3967 66.6023 9.91265 67.4237 9.58998C68.2597 9.25265 69.1177 9.08398 69.9977 9.08398C70.8923 9.08398 71.7503 9.24532 72.5717 9.56798C73.4077 9.87598 74.1483 10.3527 74.7937 10.998C75.4537 11.6287 75.9743 12.428 76.3557 13.396C76.737 14.3493 76.9277 15.464 76.9277 16.74C76.9277 17.9867 76.737 19.094 76.3557 20.062C75.9743 21.0153 75.4537 21.8147 74.7937 22.46C74.1483 23.0907 73.4077 23.5747 72.5717 23.912C71.7503 24.2347 70.8923 24.396 69.9977 24.396ZM69.9977 23.934C70.8043 23.934 71.457 23.7213 71.9557 23.296C72.4543 22.856 72.8137 22.1153 73.0337 21.074C73.2683 20.018 73.3857 18.5733 73.3857 16.74C73.3857 14.892 73.2683 13.4473 73.0337 12.406C72.8137 11.35 72.4543 10.6093 71.9557 10.184C71.457 9.74398 70.8043 9.52398 69.9977 9.52398C69.2057 9.52398 68.5603 9.74398 68.0617 10.184C67.563 10.6093 67.1963 11.35 66.9617 12.406C66.7417 13.4473 66.6317 14.892 66.6317 16.74C66.6317 18.5733 66.7417 20.018 66.9617 21.074C67.1963 22.1153 67.563 22.856 68.0617 23.296C68.5603 23.7213 69.2057 23.934 69.9977 23.934Z" fill="white"/>
<path d="M79.126 24V23.736L86.7599 9.91998H82.5799C82.0959 9.91998 81.7 10.03 81.392 10.25C81.0986 10.47 80.8346 10.7927 80.6 11.218L79.588 13H79.368L79.5219 9.47998H90.28V9.74399L82.646 23.56H87.442C87.926 23.56 88.3073 23.45 88.586 23.23C88.8793 22.9953 89.1433 22.6653 89.378 22.24L90.324 20.48H90.544L90.39 24H79.126Z" fill="white"/>
<path d="M92.7565 24V23.736L100.39 9.91998H96.2105C95.7265 9.91998 95.3305 10.03 95.0225 10.25C94.7292 10.47 94.4652 10.7927 94.2305 11.218L93.2185 13H92.9985L93.1525 9.47998H103.91V9.74399L96.2765 23.56H101.073C101.557 23.56 101.938 23.45 102.216 23.23C102.51 22.9953 102.774 22.6653 103.008 22.24L103.954 20.48H104.174L104.021 24H92.7565Z" fill="white"/>
<path d="M106.431 24V23.78L106.871 23.604C107.164 23.5013 107.355 23.362 107.443 23.186C107.546 23.01 107.597 22.7753 107.597 22.482V10.998C107.597 10.7047 107.553 10.47 107.465 10.294C107.377 10.118 107.179 9.97865 106.871 9.87598L106.431 9.69998V9.47998H112.085V9.69998L111.645 9.87598C111.352 9.97865 111.154 10.118 111.051 10.294C110.963 10.47 110.919 10.7047 110.919 10.998V22.482C110.919 22.7753 110.963 23.01 111.051 23.186C111.154 23.3473 111.352 23.4867 111.645 23.604L112.085 23.78V24H106.431Z" fill="white"/>
<path d="M18.056 50V49.93L18.231 49.867C18.3243 49.8297 18.3967 49.7853 18.448 49.734C18.4993 49.678 18.5413 49.601 18.574 49.503L20.016 45.366H20.611L22.032 49.531C22.0693 49.6337 22.1113 49.713 22.158 49.769C22.2047 49.8203 22.277 49.8647 22.375 49.902L22.459 49.93V50H20.681V49.93L20.786 49.895C20.884 49.8577 20.9423 49.8063 20.961 49.741C20.9843 49.671 20.982 49.5893 20.954 49.496L20.625 48.488H19.071L18.735 49.475C18.7023 49.5776 18.6907 49.6593 18.7 49.72C18.714 49.7807 18.77 49.8297 18.868 49.867L19.022 49.93V50H18.056ZM19.12 48.348H20.583L19.876 46.171L19.12 48.348Z" fill="white"/>
<path d="M24.04 50.105C23.7647 50.105 23.5174 50.0443 23.298 49.923C23.0787 49.797 22.9037 49.6057 22.773 49.349C22.647 49.0877 22.584 48.754 22.584 48.348C22.584 47.9373 22.6564 47.599 22.801 47.333C22.9457 47.0623 23.137 46.8617 23.375 46.731C23.613 46.5957 23.872 46.528 24.152 46.528C24.3154 46.528 24.4717 46.5443 24.621 46.577C24.7704 46.6097 24.9034 46.6587 25.02 46.724V45.814C25.02 45.716 25.0037 45.6437 24.971 45.597C24.943 45.5503 24.88 45.5177 24.782 45.499L24.649 45.471V45.401L25.923 45.093L26 45.156L25.972 46.136V49.559C25.972 49.6523 25.9884 49.7293 26.021 49.79C26.0537 49.846 26.1144 49.8857 26.203 49.909L26.266 49.93V50L25.069 50.077L25.006 49.825C24.88 49.909 24.7354 49.9767 24.572 50.028C24.4134 50.0793 24.236 50.105 24.04 50.105ZM24.446 49.846C24.642 49.846 24.8217 49.7877 24.985 49.671V46.892C24.8124 46.78 24.635 46.724 24.453 46.724C24.229 46.724 24.0377 46.8547 23.879 47.116C23.7204 47.3727 23.641 47.7787 23.641 48.334C23.641 48.8893 23.7157 49.2813 23.865 49.51C24.0144 49.734 24.208 49.846 24.446 49.846Z" fill="white"/>
<path d="M28.0752 50.021L26.8362 47.046C26.7709 46.8873 26.6589 46.7823 26.5002 46.731L26.4022 46.703V46.633H28.2152V46.703L28.0892 46.731C27.9072 46.7777 27.8512 46.899 27.9212 47.095L28.6562 49.048L29.3422 47.109C29.3795 47.0157 29.3889 46.9387 29.3702 46.878C29.3515 46.8173 29.2955 46.773 29.2022 46.745L29.0272 46.703V46.633H30.0422V46.703L29.8392 46.752C29.7505 46.7753 29.6805 46.8103 29.6292 46.857C29.5825 46.9036 29.5429 46.9737 29.5102 47.067L28.4812 50.021H28.0752Z" fill="white"/>
<path d="M31.8055 50.105C31.4509 50.105 31.1429 50.0327 30.8815 49.888C30.6202 49.7387 30.4172 49.5287 30.2725 49.258C30.1325 48.9873 30.0625 48.67 30.0625 48.306C30.0625 47.942 30.1372 47.627 30.2865 47.361C30.4405 47.095 30.6482 46.8897 30.9095 46.745C31.1755 46.6003 31.4742 46.528 31.8055 46.528C32.1369 46.528 32.4332 46.6003 32.6945 46.745C32.9559 46.885 33.1612 47.088 33.3105 47.354C33.4645 47.62 33.5415 47.9373 33.5415 48.306C33.5415 48.6747 33.4692 48.9943 33.3245 49.265C33.1845 49.531 32.9839 49.7387 32.7225 49.888C32.4659 50.0327 32.1602 50.105 31.8055 50.105ZM31.8055 49.965C31.9689 49.965 32.0995 49.9183 32.1975 49.825C32.2955 49.7317 32.3655 49.566 32.4075 49.328C32.4542 49.09 32.4775 48.754 32.4775 48.32C32.4775 47.8813 32.4542 47.543 32.4075 47.305C32.3655 47.067 32.2955 46.9013 32.1975 46.808C32.0995 46.7147 31.9689 46.668 31.8055 46.668C31.6422 46.668 31.5092 46.7147 31.4065 46.808C31.3085 46.9013 31.2362 47.067 31.1895 47.305C31.1475 47.543 31.1265 47.8813 31.1265 48.32C31.1265 48.754 31.1475 49.09 31.1895 49.328C31.2362 49.566 31.3085 49.7317 31.4065 49.825C31.5092 49.9183 31.6422 49.965 31.8055 49.965Z" fill="white"/>
<path d="M35.626 50.105C35.3087 50.105 35.0193 50.0373 34.758 49.902C34.5013 49.762 34.296 49.5613 34.142 49.3C33.9927 49.034 33.918 48.7097 33.918 48.327C33.918 47.949 33.9997 47.627 34.163 47.361C34.331 47.0903 34.5527 46.885 34.828 46.745C35.108 46.6003 35.4137 46.528 35.745 46.528C36.0157 46.528 36.2443 46.5723 36.431 46.661C36.6177 46.7497 36.76 46.8663 36.858 47.011C36.956 47.151 37.005 47.298 37.005 47.452C37.005 47.5827 36.9654 47.6853 36.886 47.76C36.8067 47.83 36.704 47.865 36.578 47.865C36.4427 47.865 36.333 47.816 36.249 47.718C36.165 47.62 36.116 47.4917 36.102 47.333C36.0973 47.2303 36.0997 47.144 36.109 47.074C36.1183 46.9993 36.1183 46.9246 36.109 46.85C36.0903 46.7706 36.06 46.7193 36.018 46.696C35.9807 46.668 35.927 46.654 35.857 46.654C35.5723 46.654 35.3507 46.7777 35.192 47.025C35.038 47.2723 34.961 47.6667 34.961 48.208C34.961 48.6793 35.0473 49.041 35.22 49.293C35.3973 49.5403 35.668 49.664 36.032 49.664C36.2514 49.664 36.4287 49.6243 36.564 49.545C36.6993 49.4657 36.83 49.3467 36.956 49.188L37.026 49.244C36.9093 49.5193 36.7297 49.7317 36.487 49.881C36.2443 50.0303 35.9573 50.105 35.626 50.105Z" fill="white"/>
<path d="M38.33 50.105C38.0593 50.105 37.8307 50.028 37.644 49.874C37.462 49.72 37.371 49.4983 37.371 49.209C37.371 48.9897 37.483 48.789 37.707 48.607C37.931 48.4203 38.2833 48.2803 38.764 48.187C38.8387 48.173 38.9227 48.159 39.016 48.145C39.1093 48.1263 39.2073 48.1077 39.31 48.089V47.536C39.31 47.2187 39.2703 46.997 39.191 46.871C39.1163 46.7403 38.9973 46.675 38.834 46.675C38.722 46.675 38.6333 46.7123 38.568 46.787C38.5027 46.857 38.4606 46.9807 38.442 47.158L38.428 47.235C38.4186 47.4357 38.3696 47.5827 38.281 47.676C38.1923 47.7693 38.0827 47.816 37.952 47.816C37.8307 47.816 37.7303 47.7786 37.651 47.704C37.5717 47.6293 37.532 47.529 37.532 47.403C37.532 47.2117 37.5973 47.0507 37.728 46.92C37.8633 46.7893 38.0406 46.6913 38.26 46.626C38.4793 46.5607 38.7173 46.528 38.974 46.528C39.3893 46.528 39.709 46.6306 39.933 46.836C40.1617 47.0367 40.276 47.3657 40.276 47.823V49.37C40.276 49.58 40.374 49.685 40.57 49.685H40.724L40.787 49.741C40.6983 49.853 40.6003 49.9393 40.493 50C40.3903 50.0607 40.2433 50.091 40.052 50.091C39.8466 50.091 39.6833 50.0443 39.562 49.951C39.4453 49.853 39.3683 49.7247 39.331 49.566C39.191 49.7153 39.0463 49.8437 38.897 49.951C38.7523 50.0537 38.5633 50.105 38.33 50.105ZM38.757 49.678C38.8503 49.678 38.9367 49.657 39.016 49.615C39.1 49.5683 39.198 49.4983 39.31 49.405V48.229C39.2633 48.2383 39.2166 48.2477 39.17 48.257C39.1233 48.2663 39.0697 48.2757 39.009 48.285C38.7943 48.341 38.6216 48.4367 38.491 48.572C38.365 48.7026 38.302 48.88 38.302 49.104C38.302 49.2953 38.3463 49.44 38.435 49.538C38.5236 49.6313 38.631 49.678 38.757 49.678Z" fill="white"/>
<path d="M42.667 50.105C42.3497 50.105 42.0604 50.0373 41.799 49.902C41.5424 49.762 41.337 49.5613 41.183 49.3C41.0337 49.034 40.959 48.7097 40.959 48.327C40.959 47.949 41.0407 47.627 41.204 47.361C41.372 47.0903 41.5937 46.885 41.869 46.745C42.149 46.6003 42.4547 46.528 42.786 46.528C43.0567 46.528 43.2854 46.5723 43.472 46.661C43.6587 46.7497 43.801 46.8663 43.899 47.011C43.997 47.151 44.046 47.298 44.046 47.452C44.046 47.5827 44.0064 47.6853 43.927 47.76C43.8477 47.83 43.745 47.865 43.619 47.865C43.4837 47.865 43.374 47.816 43.29 47.718C43.206 47.62 43.157 47.4917 43.143 47.333C43.1384 47.2303 43.1407 47.144 43.15 47.074C43.1594 46.9993 43.1594 46.9246 43.15 46.85C43.1314 46.7706 43.101 46.7193 43.059 46.696C43.0217 46.668 42.968 46.654 42.898 46.654C42.6134 46.654 42.3917 46.7777 42.233 47.025C42.079 47.2723 42.002 47.6667 42.002 48.208C42.002 48.6793 42.0884 49.041 42.261 49.293C42.4384 49.5403 42.709 49.664 43.073 49.664C43.2924 49.664 43.4697 49.6243 43.605 49.545C43.7404 49.4657 43.871 49.3467 43.997 49.188L44.067 49.244C43.9504 49.5193 43.7707 49.7317 43.528 49.881C43.2854 50.0303 42.9984 50.105 42.667 50.105Z" fill="white"/>
<path d="M45.23 46.164C45.0713 46.164 44.936 46.115 44.824 46.017C44.7167 45.9143 44.663 45.786 44.663 45.632C44.663 45.4733 44.7167 45.345 44.824 45.247C44.936 45.149 45.0713 45.1 45.23 45.1C45.3887 45.1 45.5217 45.149 45.629 45.247C45.7364 45.345 45.79 45.4733 45.79 45.632C45.79 45.786 45.7364 45.9143 45.629 46.017C45.5217 46.115 45.3887 46.164 45.23 46.164ZM44.404 50V49.93L44.502 49.902C44.5953 49.874 44.6583 49.832 44.691 49.776C44.7283 49.72 44.747 49.6453 44.747 49.552V47.361C44.747 47.263 44.7283 47.1907 44.691 47.144C44.6583 47.0927 44.5953 47.0577 44.502 47.039L44.404 47.018V46.948L45.685 46.535L45.755 46.605L45.734 47.599V49.559C45.734 49.6523 45.7503 49.727 45.783 49.783C45.8203 49.839 45.8833 49.881 45.972 49.909L46.042 49.93V50H44.404Z" fill="white"/>
<path d="M47.3739 50.105C47.1033 50.105 46.8746 50.028 46.6879 49.874C46.5059 49.72 46.4149 49.4983 46.4149 49.209C46.4149 48.9897 46.5269 48.789 46.7509 48.607C46.9749 48.4203 47.3273 48.2803 47.8079 48.187C47.8826 48.173 47.9666 48.159 48.0599 48.145C48.1533 48.1263 48.2513 48.1077 48.3539 48.089V47.536C48.3539 47.2187 48.3143 46.997 48.2349 46.871C48.1603 46.7403 48.0413 46.675 47.8779 46.675C47.7659 46.675 47.6773 46.7123 47.6119 46.787C47.5466 46.857 47.5046 46.9807 47.4859 47.158L47.4719 47.235C47.4626 47.4357 47.4136 47.5827 47.3249 47.676C47.2363 47.7693 47.1266 47.816 46.9959 47.816C46.8746 47.816 46.7743 47.7786 46.6949 47.704C46.6156 47.6293 46.5759 47.529 46.5759 47.403C46.5759 47.2117 46.6413 47.0507 46.7719 46.92C46.9073 46.7893 47.0846 46.6913 47.3039 46.626C47.5233 46.5607 47.7613 46.528 48.0179 46.528C48.4333 46.528 48.7529 46.6306 48.9769 46.836C49.2056 47.0367 49.3199 47.3657 49.3199 47.823V49.37C49.3199 49.58 49.4179 49.685 49.6139 49.685H49.7679L49.8309 49.741C49.7423 49.853 49.6443 49.9393 49.5369 50C49.4343 50.0607 49.2873 50.091 49.0959 50.091C48.8906 50.091 48.7273 50.0443 48.6059 49.951C48.4893 49.853 48.4123 49.7247 48.3749 49.566C48.2349 49.7153 48.0903 49.8437 47.9409 49.951C47.7963 50.0537 47.6073 50.105 47.3739 50.105ZM47.8009 49.678C47.8943 49.678 47.9806 49.657 48.0599 49.615C48.1439 49.5683 48.2419 49.4983 48.3539 49.405V48.229C48.3073 48.2383 48.2606 48.2477 48.2139 48.257C48.1673 48.2663 48.1136 48.2757 48.0529 48.285C47.8383 48.341 47.6656 48.4367 47.5349 48.572C47.4089 48.7026 47.3459 48.88 47.3459 49.104C47.3459 49.2953 47.3903 49.44 47.4789 49.538C47.5676 49.6313 47.6749 49.678 47.8009 49.678Z" fill="white"/>
<path d="M53.2564 46.528C53.5597 46.528 53.8187 46.591 54.0334 46.717C54.2481 46.8383 54.4114 47.0063 54.5234 47.221C54.6401 47.431 54.6984 47.6713 54.6984 47.942C54.6984 47.9933 54.6961 48.047 54.6914 48.103C54.6867 48.1543 54.6774 48.201 54.6634 48.243H52.5774C52.5821 48.747 52.6707 49.111 52.8434 49.335C53.0207 49.5543 53.2821 49.664 53.6274 49.664C53.8607 49.664 54.0497 49.6267 54.1944 49.552C54.3391 49.4773 54.4744 49.3677 54.6004 49.223L54.6704 49.286C54.5257 49.5427 54.3321 49.7433 54.0894 49.888C53.8514 50.0327 53.5644 50.105 53.2284 50.105C52.8971 50.105 52.6031 50.035 52.3464 49.895C52.0897 49.7503 51.8891 49.545 51.7444 49.279C51.5997 49.013 51.5274 48.6957 51.5274 48.327C51.5274 47.9443 51.6114 47.62 51.7794 47.354C51.9474 47.0833 52.1621 46.878 52.4234 46.738C52.6894 46.598 52.9671 46.528 53.2564 46.528ZM53.2354 46.668C53.1001 46.668 52.9834 46.71 52.8854 46.794C52.7921 46.8733 52.7174 47.018 52.6614 47.228C52.6101 47.4333 52.5821 47.725 52.5774 48.103H53.7744C53.8211 47.5943 53.8024 47.228 53.7184 47.004C53.6344 46.78 53.4734 46.668 53.2354 46.668Z" fill="white"/>
<path d="M58.9937 50.126C58.541 50.126 58.1303 50.035 57.7617 49.853C57.3977 49.6663 57.1083 49.391 56.8937 49.027C56.679 48.663 56.5717 48.2173 56.5717 47.69C56.5717 47.2887 56.637 46.9363 56.7677 46.633C56.8983 46.3297 57.0757 46.0753 57.2997 45.87C57.5283 45.6647 57.7897 45.5107 58.0837 45.408C58.3823 45.3053 58.6973 45.254 59.0287 45.254C59.2947 45.254 59.5397 45.2843 59.7637 45.345C59.9877 45.4057 60.1977 45.4897 60.3937 45.597L60.4217 46.458H60.3517L60.0017 45.898C59.955 45.8093 59.9037 45.73 59.8477 45.66C59.7917 45.5853 59.7217 45.5293 59.6377 45.492C59.5677 45.4593 59.4977 45.436 59.4277 45.422C59.3623 45.4033 59.2783 45.394 59.1757 45.394C58.905 45.394 58.6577 45.4663 58.4337 45.611C58.2143 45.7557 58.037 45.996 57.9017 46.332C57.771 46.6633 57.7057 47.1183 57.7057 47.697C57.7057 48.271 57.7687 48.726 57.8947 49.062C58.0207 49.3933 58.191 49.6313 58.4057 49.776C58.625 49.916 58.87 49.986 59.1407 49.986C59.29 49.986 59.409 49.9767 59.4977 49.958C59.5863 49.9347 59.675 49.902 59.7637 49.86C59.8523 49.8227 59.92 49.769 59.9667 49.699C60.0133 49.6243 60.0553 49.545 60.0927 49.461L60.4007 48.775H60.4707L60.4497 49.776C60.2537 49.8787 60.0343 49.9627 59.7917 50.028C59.549 50.0933 59.283 50.126 58.9937 50.126Z" fill="white"/>
<path d="M61.6294 46.164C61.4708 46.164 61.3354 46.115 61.2234 46.017C61.1161 45.9143 61.0624 45.786 61.0624 45.632C61.0624 45.4733 61.1161 45.345 61.2234 45.247C61.3354 45.149 61.4708 45.1 61.6294 45.1C61.7881 45.1 61.9211 45.149 62.0284 45.247C62.1358 45.345 62.1894 45.4733 62.1894 45.632C62.1894 45.786 62.1358 45.9143 62.0284 46.017C61.9211 46.115 61.7881 46.164 61.6294 46.164ZM60.8034 50V49.93L60.9014 49.902C60.9948 49.874 61.0578 49.832 61.0904 49.776C61.1278 49.72 61.1464 49.6453 61.1464 49.552V47.361C61.1464 47.263 61.1278 47.1907 61.0904 47.144C61.0578 47.0927 60.9948 47.0577 60.9014 47.039L60.8034 47.018V46.948L62.0844 46.535L62.1544 46.605L62.1334 47.599V49.559C62.1334 49.6523 62.1498 49.727 62.1824 49.783C62.2198 49.839 62.2828 49.881 62.3714 49.909L62.4414 49.93V50H60.8034Z" fill="white"/>
<path d="M64.2353 50.105C63.96 50.105 63.7127 50.0443 63.4933 49.923C63.274 49.797 63.099 49.6057 62.9683 49.349C62.8423 49.0877 62.7793 48.754 62.7793 48.348C62.7793 47.9373 62.8517 47.599 62.9963 47.333C63.141 47.0623 63.3323 46.8617 63.5703 46.731C63.8083 46.5957 64.0673 46.528 64.3473 46.528C64.5107 46.528 64.667 46.5443 64.8163 46.577C64.9657 46.6097 65.0987 46.6587 65.2153 46.724V45.814C65.2153 45.716 65.199 45.6437 65.1663 45.597C65.1383 45.5503 65.0753 45.5177 64.9773 45.499L64.8443 45.471V45.401L66.1183 45.093L66.1953 45.156L66.1673 46.136V49.559C66.1673 49.6523 66.1837 49.7293 66.2163 49.79C66.249 49.846 66.3097 49.8857 66.3983 49.909L66.4613 49.93V50L65.2643 50.077L65.2013 49.825C65.0753 49.909 64.9307 49.9767 64.7673 50.028C64.6087 50.0793 64.4313 50.105 64.2353 50.105ZM64.6413 49.846C64.8373 49.846 65.017 49.7877 65.1803 49.671V46.892C65.0077 46.78 64.8303 46.724 64.6483 46.724C64.4243 46.724 64.233 46.8547 64.0743 47.116C63.9157 47.3727 63.8363 47.7787 63.8363 48.334C63.8363 48.8893 63.911 49.2813 64.0603 49.51C64.2097 49.734 64.4033 49.846 64.6413 49.846Z" fill="white"/>
<path d="M67.7245 50.105C67.4539 50.105 67.2252 50.028 67.0385 49.874C66.8565 49.72 66.7655 49.4983 66.7655 49.209C66.7655 48.9897 66.8775 48.789 67.1015 48.607C67.3255 48.4203 67.6778 48.2803 68.1585 48.187C68.2332 48.173 68.3172 48.159 68.4105 48.145C68.5038 48.1263 68.6018 48.1077 68.7045 48.089V47.536C68.7045 47.2187 68.6649 46.997 68.5855 46.871C68.5109 46.7403 68.3918 46.675 68.2285 46.675C68.1165 46.675 68.0279 46.7123 67.9625 46.787C67.8972 46.857 67.8552 46.9807 67.8365 47.158L67.8225 47.235C67.8132 47.4357 67.7642 47.5827 67.6755 47.676C67.5868 47.7693 67.4772 47.816 67.3465 47.816C67.2252 47.816 67.1249 47.7786 67.0455 47.704C66.9662 47.6293 66.9265 47.529 66.9265 47.403C66.9265 47.2117 66.9918 47.0507 67.1225 46.92C67.2578 46.7893 67.4352 46.6913 67.6545 46.626C67.8739 46.5607 68.1118 46.528 68.3685 46.528C68.7838 46.528 69.1035 46.6306 69.3275 46.836C69.5562 47.0367 69.6705 47.3657 69.6705 47.823V49.37C69.6705 49.58 69.7685 49.685 69.9645 49.685H70.1185L70.1815 49.741C70.0929 49.853 69.9948 49.9393 69.8875 50C69.7848 50.0607 69.6379 50.091 69.4465 50.091C69.2412 50.091 69.0778 50.0443 68.9565 49.951C68.8398 49.853 68.7629 49.7247 68.7255 49.566C68.5855 49.7153 68.4408 49.8437 68.2915 49.951C68.1468 50.0537 67.9579 50.105 67.7245 50.105ZM68.1515 49.678C68.2448 49.678 68.3312 49.657 68.4105 49.615C68.4945 49.5683 68.5925 49.4983 68.7045 49.405V48.229C68.6578 48.2383 68.6112 48.2477 68.5645 48.257C68.5178 48.2663 68.4642 48.2757 68.4035 48.285C68.1889 48.341 68.0162 48.4367 67.8855 48.572C67.7595 48.7026 67.6965 48.88 67.6965 49.104C67.6965 49.2953 67.7408 49.44 67.8295 49.538C67.9182 49.6313 68.0255 49.678 68.1515 49.678Z" fill="white"/>
<path d="M71.8096 50.105C71.5342 50.105 71.2869 50.0443 71.0676 49.923C70.8482 49.797 70.6732 49.6057 70.5426 49.349C70.4166 49.0877 70.3536 48.754 70.3536 48.348C70.3536 47.9373 70.4259 47.599 70.5706 47.333C70.7152 47.0623 70.9066 46.8617 71.1446 46.731C71.3826 46.5957 71.6416 46.528 71.9216 46.528C72.0849 46.528 72.2412 46.5443 72.3906 46.577C72.5399 46.6097 72.6729 46.6587 72.7896 46.724V45.814C72.7896 45.716 72.7732 45.6437 72.7406 45.597C72.7126 45.5503 72.6496 45.5177 72.5516 45.499L72.4186 45.471V45.401L73.6926 45.093L73.7696 45.156L73.7416 46.136V49.559C73.7416 49.6523 73.7579 49.7293 73.7906 49.79C73.8232 49.846 73.8839 49.8857 73.9726 49.909L74.0356 49.93V50L72.8386 50.077L72.7756 49.825C72.6496 49.909 72.5049 49.9767 72.3416 50.028C72.1829 50.0793 72.0056 50.105 71.8096 50.105ZM72.2156 49.846C72.4116 49.846 72.5912 49.7877 72.7546 49.671V46.892C72.5819 46.78 72.4046 46.724 72.2226 46.724C71.9986 46.724 71.8072 46.8547 71.6486 47.116C71.4899 47.3727 71.4106 47.7787 71.4106 48.334C71.4106 48.8893 71.4852 49.2813 71.6346 49.51C71.7839 49.734 71.9776 49.846 72.2156 49.846Z" fill="white"/>
<path d="M75.2987 50.105C75.0281 50.105 74.7994 50.028 74.6127 49.874C74.4307 49.72 74.3397 49.4983 74.3397 49.209C74.3397 48.9897 74.4517 48.789 74.6757 48.607C74.8997 48.4203 75.2521 48.2803 75.7327 48.187C75.8074 48.173 75.8914 48.159 75.9847 48.145C76.0781 48.1263 76.1761 48.1077 76.2787 48.089V47.536C76.2787 47.2187 76.2391 46.997 76.1597 46.871C76.0851 46.7403 75.9661 46.675 75.8027 46.675C75.6907 46.675 75.6021 46.7123 75.5367 46.787C75.4714 46.857 75.4294 46.9807 75.4107 47.158L75.3967 47.235C75.3874 47.4357 75.3384 47.5827 75.2497 47.676C75.1611 47.7693 75.0514 47.816 74.9207 47.816C74.7994 47.816 74.6991 47.7786 74.6197 47.704C74.5404 47.6293 74.5007 47.529 74.5007 47.403C74.5007 47.2117 74.5661 47.0507 74.6967 46.92C74.8321 46.7893 75.0094 46.6913 75.2287 46.626C75.4481 46.5607 75.6861 46.528 75.9427 46.528C76.3581 46.528 76.6777 46.6306 76.9017 46.836C77.1304 47.0367 77.2447 47.3657 77.2447 47.823V49.37C77.2447 49.58 77.3427 49.685 77.5387 49.685H77.6927L77.7557 49.741C77.6671 49.853 77.5691 49.9393 77.4617 50C77.3591 50.0607 77.2121 50.091 77.0207 50.091C76.8154 50.091 76.6521 50.0443 76.5307 49.951C76.4141 49.853 76.3371 49.7247 76.2997 49.566C76.1597 49.7153 76.0151 49.8437 75.8657 49.951C75.7211 50.0537 75.5321 50.105 75.2987 50.105ZM75.7257 49.678C75.8191 49.678 75.9054 49.657 75.9847 49.615C76.0687 49.5683 76.1667 49.4983 76.2787 49.405V48.229C76.2321 48.2383 76.1854 48.2477 76.1387 48.257C76.0921 48.2663 76.0384 48.2757 75.9777 48.285C75.7631 48.341 75.5904 48.4367 75.4597 48.572C75.3337 48.7026 75.2707 48.88 75.2707 49.104C75.2707 49.2953 75.3151 49.44 75.4037 49.538C75.4924 49.6313 75.5997 49.678 75.7257 49.678Z" fill="white"/>
<path d="M77.8861 50V49.93L77.9841 49.902C78.1474 49.8553 78.2291 49.741 78.2291 49.559V47.368C78.2291 47.2653 78.2128 47.1907 78.1801 47.144C78.1474 47.0927 78.0844 47.0577 77.9911 47.039L77.8861 47.011V46.941L79.0831 46.535L79.1531 46.605L79.2091 47.025C79.3724 46.8803 79.5568 46.7613 79.7621 46.668C79.9674 46.5747 80.1704 46.528 80.3711 46.528C80.6791 46.528 80.9148 46.612 81.0781 46.78C81.2461 46.948 81.3301 47.2047 81.3301 47.55V49.566C81.3301 49.748 81.4188 49.8623 81.5961 49.909L81.6591 49.93V50H80.0071V49.93L80.0981 49.902C80.2614 49.8507 80.3431 49.7363 80.3431 49.559V47.326C80.3431 47.0273 80.1938 46.878 79.8951 46.878C79.6898 46.878 79.4658 46.9807 79.2231 47.186V49.566C79.2231 49.748 79.3048 49.8623 79.4681 49.909L79.5311 49.93V50H77.8861Z" fill="white"/>
<path d="M82.773 46.164C82.6143 46.164 82.479 46.115 82.367 46.017C82.2596 45.9143 82.206 45.786 82.206 45.632C82.206 45.4733 82.2596 45.345 82.367 45.247C82.479 45.149 82.6143 45.1 82.773 45.1C82.9317 45.1 83.0646 45.149 83.172 45.247C83.2793 45.345 83.333 45.4733 83.333 45.632C83.333 45.786 83.2793 45.9143 83.172 46.017C83.0646 46.115 82.9317 46.164 82.773 46.164ZM81.947 50V49.93L82.045 49.902C82.1383 49.874 82.2013 49.832 82.234 49.776C82.2713 49.72 82.29 49.6453 82.29 49.552V47.361C82.29 47.263 82.2713 47.1907 82.234 47.144C82.2013 47.0927 82.1383 47.0577 82.045 47.039L81.947 47.018V46.948L83.228 46.535L83.298 46.605L83.277 47.599V49.559C83.277 49.6523 83.2933 49.727 83.326 49.783C83.3633 49.839 83.4263 49.881 83.515 49.909L83.585 49.93V50H81.947Z" fill="white"/>
<path d="M84.9169 50.105C84.6462 50.105 84.4176 50.028 84.2309 49.874C84.0489 49.72 83.9579 49.4983 83.9579 49.209C83.9579 48.9897 84.0699 48.789 84.2939 48.607C84.5179 48.4203 84.8702 48.2803 85.3509 48.187C85.4256 48.173 85.5096 48.159 85.6029 48.145C85.6962 48.1263 85.7942 48.1077 85.8969 48.089V47.536C85.8969 47.2187 85.8572 46.997 85.7779 46.871C85.7032 46.7403 85.5842 46.675 85.4209 46.675C85.3089 46.675 85.2202 46.7123 85.1549 46.787C85.0896 46.857 85.0476 46.9807 85.0289 47.158L85.0149 47.235C85.0056 47.4357 84.9566 47.5827 84.8679 47.676C84.7792 47.7693 84.6696 47.816 84.5389 47.816C84.4176 47.816 84.3172 47.7786 84.2379 47.704C84.1586 47.6293 84.1189 47.529 84.1189 47.403C84.1189 47.2117 84.1842 47.0507 84.3149 46.92C84.4502 46.7893 84.6276 46.6913 84.8469 46.626C85.0662 46.5607 85.3042 46.528 85.5609 46.528C85.9762 46.528 86.2959 46.6306 86.5199 46.836C86.7486 47.0367 86.8629 47.3657 86.8629 47.823V49.37C86.8629 49.58 86.9609 49.685 87.1569 49.685H87.3109L87.3739 49.741C87.2852 49.853 87.1872 49.9393 87.0799 50C86.9772 50.0607 86.8302 50.091 86.6389 50.091C86.4336 50.091 86.2702 50.0443 86.1489 49.951C86.0322 49.853 85.9552 49.7247 85.9179 49.566C85.7779 49.7153 85.6332 49.8437 85.4839 49.951C85.3392 50.0537 85.1502 50.105 84.9169 50.105ZM85.3439 49.678C85.4372 49.678 85.5236 49.657 85.6029 49.615C85.6869 49.5683 85.7849 49.4983 85.8969 49.405V48.229C85.8502 48.2383 85.8036 48.2477 85.7569 48.257C85.7102 48.2663 85.6566 48.2757 85.5959 48.285C85.3812 48.341 85.2086 48.4367 85.0779 48.572C84.9519 48.7026 84.8889 48.88 84.8889 49.104C84.8889 49.2953 84.9332 49.44 85.0219 49.538C85.1106 49.6313 85.2179 49.678 85.3439 49.678Z" fill="white"/>
<path d="M89.0564 50V49.93L89.1964 49.874C89.2897 49.8413 89.3504 49.797 89.3784 49.741C89.411 49.685 89.4274 49.6103 89.4274 49.517V45.863C89.4274 45.7697 89.4134 45.695 89.3854 45.639C89.3574 45.583 89.2944 45.5387 89.1964 45.506L89.0564 45.45V45.38H90.8554V45.45L90.7154 45.506C90.622 45.5387 90.559 45.583 90.5264 45.639C90.4984 45.695 90.4844 45.7697 90.4844 45.863V49.517C90.4844 49.6103 90.4984 49.685 90.5264 49.741C90.559 49.7923 90.622 49.8367 90.7154 49.874L90.8554 49.93V50H89.0564Z" fill="white"/>
<path d="M92.3685 50.105C92.0698 50.105 91.8364 50.0303 91.6684 49.881C91.5051 49.7317 91.4235 49.4937 91.4235 49.167V46.773H90.9405V46.703L91.1085 46.675C91.2531 46.6423 91.3768 46.5957 91.4795 46.535C91.5868 46.4743 91.6918 46.3927 91.7945 46.29L92.3685 45.653H92.4385L92.4174 46.633H93.2015V46.773H92.4105V49.293C92.4105 49.4563 92.4454 49.58 92.5154 49.664C92.5901 49.748 92.6835 49.79 92.7955 49.79C92.8935 49.79 92.9798 49.7667 93.0545 49.72C93.1291 49.6687 93.2038 49.601 93.2785 49.517L93.3484 49.587C93.2551 49.7457 93.1268 49.8717 92.9635 49.965C92.8001 50.0583 92.6018 50.105 92.3685 50.105Z" fill="white"/>
<path d="M94.5898 50.105C94.3191 50.105 94.0904 50.028 93.9037 49.874C93.7217 49.72 93.6308 49.4983 93.6308 49.209C93.6308 48.9897 93.7428 48.789 93.9668 48.607C94.1908 48.4203 94.5431 48.2803 95.0238 48.187C95.0984 48.173 95.1824 48.159 95.2757 48.145C95.3691 48.1263 95.4671 48.1077 95.5697 48.089V47.536C95.5697 47.2187 95.5301 46.997 95.4508 46.871C95.3761 46.7403 95.2571 46.675 95.0938 46.675C94.9818 46.675 94.8931 46.7123 94.8278 46.787C94.7624 46.857 94.7204 46.9807 94.7018 47.158L94.6878 47.235C94.6784 47.4357 94.6294 47.5827 94.5407 47.676C94.4521 47.7693 94.3424 47.816 94.2117 47.816C94.0904 47.816 93.9901 47.7786 93.9108 47.704C93.8314 47.6293 93.7917 47.529 93.7917 47.403C93.7917 47.2117 93.8571 47.0507 93.9877 46.92C94.1231 46.7893 94.3004 46.6913 94.5198 46.626C94.7391 46.5607 94.9771 46.528 95.2337 46.528C95.6491 46.528 95.9687 46.6306 96.1927 46.836C96.4214 47.0367 96.5358 47.3657 96.5358 47.823V49.37C96.5358 49.58 96.6338 49.685 96.8298 49.685H96.9837L97.0468 49.741C96.9581 49.853 96.8601 49.9393 96.7527 50C96.6501 50.0607 96.5031 50.091 96.3118 50.091C96.1064 50.091 95.9431 50.0443 95.8217 49.951C95.7051 49.853 95.6281 49.7247 95.5908 49.566C95.4508 49.7153 95.3061 49.8437 95.1567 49.951C95.0121 50.0537 94.8231 50.105 94.5898 50.105ZM95.0167 49.678C95.1101 49.678 95.1964 49.657 95.2757 49.615C95.3597 49.5683 95.4577 49.4983 95.5697 49.405V48.229C95.5231 48.2383 95.4764 48.2477 95.4297 48.257C95.3831 48.2663 95.3294 48.2757 95.2688 48.285C95.0541 48.341 94.8814 48.4367 94.7507 48.572C94.6247 48.7026 94.5618 48.88 94.5618 49.104C94.5618 49.2953 94.6061 49.44 94.6947 49.538C94.7834 49.6313 94.8907 49.678 95.0167 49.678Z" fill="white"/>
<path d="M97.2118 50V49.93L97.2958 49.902C97.4638 49.846 97.5478 49.7293 97.5478 49.552V45.807C97.5478 45.7137 97.5291 45.6437 97.4918 45.597C97.4545 45.5457 97.3891 45.5083 97.2958 45.485L97.2048 45.464V45.394L98.4858 45.093L98.5698 45.156L98.5418 46.136V48.53C98.5418 48.7027 98.5418 48.8753 98.5418 49.048C98.5465 49.216 98.5488 49.384 98.5488 49.552C98.5488 49.6453 98.5675 49.7223 98.6048 49.783C98.6421 49.839 98.7051 49.881 98.7938 49.909L98.8848 49.93V50H97.2118Z" fill="white"/>
<path d="M100.034 46.164C99.8751 46.164 99.7397 46.115 99.6277 46.017C99.5204 45.9143 99.4667 45.786 99.4667 45.632C99.4667 45.4733 99.5204 45.345 99.6277 45.247C99.7397 45.149 99.8751 45.1 100.034 45.1C100.192 45.1 100.325 45.149 100.433 45.247C100.54 45.345 100.594 45.4733 100.594 45.632C100.594 45.786 100.54 45.9143 100.433 46.017C100.325 46.115 100.192 46.164 100.034 46.164ZM99.2077 50V49.93L99.3057 49.902C99.3991 49.874 99.4621 49.832 99.4947 49.776C99.5321 49.72 99.5507 49.6453 99.5507 49.552V47.361C99.5507 47.263 99.5321 47.1907 99.4947 47.144C99.4621 47.0927 99.3991 47.0577 99.3057 47.039L99.2077 47.018V46.948L100.489 46.535L100.559 46.605L100.538 47.599V49.559C100.538 49.6523 100.554 49.727 100.587 49.783C100.624 49.839 100.687 49.881 100.776 49.909L100.846 49.93V50H99.2077Z" fill="white"/>
<path d="M102.178 50.105C101.907 50.105 101.678 50.028 101.492 49.874C101.31 49.72 101.219 49.4983 101.219 49.209C101.219 48.9897 101.331 48.789 101.555 48.607C101.779 48.4203 102.131 48.2803 102.612 48.187C102.686 48.173 102.77 48.159 102.864 48.145C102.957 48.1263 103.055 48.1077 103.158 48.089V47.536C103.158 47.2187 103.118 46.997 103.039 46.871C102.964 46.7403 102.845 46.675 102.682 46.675C102.57 46.675 102.481 46.7123 102.416 46.787C102.35 46.857 102.308 46.9807 102.29 47.158L102.276 47.235C102.266 47.4357 102.217 47.5827 102.129 47.676C102.04 47.7693 101.93 47.816 101.8 47.816C101.678 47.816 101.578 47.7786 101.499 47.704C101.419 47.6293 101.38 47.529 101.38 47.403C101.38 47.2117 101.445 47.0507 101.576 46.92C101.711 46.7893 101.888 46.6913 102.108 46.626C102.327 46.5607 102.565 46.528 102.822 46.528C103.237 46.528 103.557 46.6306 103.781 46.836C104.009 47.0367 104.124 47.3657 104.124 47.823V49.37C104.124 49.58 104.222 49.685 104.418 49.685H104.572L104.635 49.741C104.546 49.853 104.448 49.9393 104.341 50C104.238 50.0607 104.091 50.091 103.9 50.091C103.694 50.091 103.531 50.0443 103.41 49.951C103.293 49.853 103.216 49.7247 103.179 49.566C103.039 49.7153 102.894 49.8437 102.745 49.951C102.6 50.0537 102.411 50.105 102.178 50.105ZM102.605 49.678C102.698 49.678 102.784 49.657 102.864 49.615C102.948 49.5683 103.046 49.4983 103.158 49.405V48.229C103.111 48.2383 103.064 48.2477 103.018 48.257C102.971 48.2663 102.917 48.2757 102.857 48.285C102.642 48.341 102.469 48.4367 102.339 48.572C102.213 48.7026 102.15 48.88 102.15 49.104C102.15 49.2953 102.194 49.44 102.283 49.538C102.371 49.6313 102.479 49.678 102.605 49.678Z" fill="white"/>
<path d="M104.765 50V49.93L104.863 49.902C105.026 49.8553 105.108 49.741 105.108 49.559V47.368C105.108 47.2653 105.092 47.1907 105.059 47.144C105.026 47.0927 104.963 47.0577 104.87 47.039L104.765 47.011V46.941L105.962 46.535L106.032 46.605L106.088 47.025C106.251 46.8803 106.436 46.7613 106.641 46.668C106.846 46.5747 107.049 46.528 107.25 46.528C107.558 46.528 107.794 46.612 107.957 46.78C108.125 46.948 108.209 47.2047 108.209 47.55V49.566C108.209 49.748 108.298 49.8623 108.475 49.909L108.538 49.93V50H106.886V49.93L106.977 49.902C107.14 49.8507 107.222 49.7363 107.222 49.559V47.326C107.222 47.0273 107.073 46.878 106.774 46.878C106.569 46.878 106.345 46.9807 106.102 47.186V49.566C106.102 49.748 106.184 49.8623 106.347 49.909L106.41 49.93V50H104.765Z" fill="white"/>
<path d="M109.793 50.105C109.522 50.105 109.294 50.028 109.107 49.874C108.925 49.72 108.834 49.4983 108.834 49.209C108.834 48.9897 108.946 48.789 109.17 48.607C109.394 48.4203 109.746 48.2803 110.227 48.187C110.302 48.173 110.386 48.159 110.479 48.145C110.572 48.1263 110.67 48.1077 110.773 48.089V47.536C110.773 47.2187 110.733 46.997 110.654 46.871C110.579 46.7403 110.46 46.675 110.297 46.675C110.185 46.675 110.096 46.7123 110.031 46.787C109.966 46.857 109.924 46.9807 109.905 47.158L109.891 47.235C109.882 47.4357 109.833 47.5827 109.744 47.676C109.655 47.7693 109.546 47.816 109.415 47.816C109.294 47.816 109.193 47.7786 109.114 47.704C109.035 47.6293 108.995 47.529 108.995 47.403C108.995 47.2117 109.06 47.0507 109.191 46.92C109.326 46.7893 109.504 46.6913 109.723 46.626C109.942 46.5607 110.18 46.528 110.437 46.528C110.852 46.528 111.172 46.6306 111.396 46.836C111.625 47.0367 111.739 47.3657 111.739 47.823V49.37C111.739 49.58 111.837 49.685 112.033 49.685H112.187L112.25 49.741C112.161 49.853 112.063 49.9393 111.956 50C111.853 50.0607 111.706 50.091 111.515 50.091C111.31 50.091 111.146 50.0443 111.025 49.951C110.908 49.853 110.831 49.7247 110.794 49.566C110.654 49.7153 110.509 49.8437 110.36 49.951C110.215 50.0537 110.026 50.105 109.793 50.105ZM110.22 49.678C110.313 49.678 110.4 49.657 110.479 49.615C110.563 49.5683 110.661 49.4983 110.773 49.405V48.229C110.726 48.2383 110.68 48.2477 110.633 48.257C110.586 48.2663 110.533 48.2757 110.472 48.285C110.257 48.341 110.085 48.4367 109.954 48.572C109.828 48.7026 109.765 48.88 109.765 49.104C109.765 49.2953 109.809 49.44 109.898 49.538C109.987 49.6313 110.094 49.678 110.22 49.678Z" fill="white"/>
<path d="M120.998 37.9605L120.998 11.6395C140.446 11.1697 143.843 13.1294 146.326 22.0686C147.308 25.6048 147.28 29.1411 145.411 32.001M120.998 37.9605L120.998 57.8253C142.353 57.8253 151.788 59.8118 153.775 46.403C153.706 37.204 150.9 35.142 145.411 32.001M120.998 37.9605C135.406 39.1611 142.557 36.3705 145.411 32.001" stroke="white" stroke-width="5" stroke-linecap="round"/>
<path d="M129 11.1487C129 11.1487 129 6.31321 129 3.21484C148.069 1.72723 154.425 8.17352 154.914 16.1074C155.495 21.9164 153.147 24.5728 147.58 29" stroke="white" stroke-width="5" stroke-linecap="round"/>
<path d="M155.984 20C165.408 25.76 165.904 38.24 154 44" stroke="white" stroke-width="5" stroke-linecap="round"/>
<rect x="65" y="56" width="16.3333" height="3.27338" fill="#006E3C"/>
<rect x="81.3331" y="56" width="16.3333" height="3.27338" fill="white"/>
<rect x="97.6664" y="56" width="16.3333" height="3.27338" fill="#A71C20"/>
</svg>
