<svg width="32" height="32" viewBox="0 0 32 32" fill="none" xmlns="http://www.w3.org/2000/svg">
<path d="M16 0.233887C11.6533 0.233887 11.1107 0.253274 9.404 0.326945C7.7 0.404493 6.54 0.66428 5.52 1.04814C4.468 1.44364 3.57467 1.97485 2.68533 2.83692C1.796 3.69901 1.24667 4.56367 0.84 5.58473C0.444 6.57347 0.174667 7.69792 0.096 9.3497C0.016 11.0041 0 11.5301 0 15.7436C0 19.9571 0.02 20.483 0.096 22.1374C0.176 23.788 0.444 24.9137 0.84 25.9024C1.248 26.9209 1.796 27.7881 2.68533 28.6502C3.57467 29.511 4.46667 30.0447 5.52 30.439C6.54133 30.8216 7.70133 31.0839 9.404 31.1602C11.1107 31.2377 11.6533 31.2532 16 31.2532C20.3467 31.2532 20.8893 31.2339 22.596 31.1602C24.2987 31.0826 25.46 30.8216 26.48 30.439C27.5307 30.0435 28.4253 29.511 29.3147 28.6502C30.2027 27.7881 30.7533 26.9248 31.16 25.9024C31.5547 24.9137 31.8253 23.788 31.904 22.1374C31.984 20.483 32 19.9571 32 15.7436C32 11.5301 31.98 11.0041 31.904 9.3497C31.824 7.69921 31.5547 6.57218 31.16 5.58473C30.752 4.56496 30.2027 3.69901 29.3147 2.83692C28.4253 1.97485 27.5347 1.44235 26.48 1.04814C25.46 0.66428 24.2987 0.403201 22.596 0.326945C20.8893 0.249396 20.3467 0.233887 16 0.233887ZM16 3.02563C20.2707 3.02563 20.78 3.0463 22.4667 3.1174C24.0267 3.18848 24.8733 3.43922 25.436 3.65377C26.1853 3.93423 26.716 4.27028 27.2787 4.81183C27.8373 5.35467 28.184 5.87037 28.4733 6.59673C28.692 7.14216 28.9533 7.96287 29.024 9.47507C29.1 11.1113 29.1173 11.6025 29.1173 15.7436C29.1173 19.8846 29.0973 20.3771 29.0187 22.0121C28.9373 23.5243 28.6773 24.3449 28.4573 24.8904C28.1587 25.6167 27.8187 26.1312 27.2587 26.6766C26.7 27.2181 26.16 27.5542 25.4187 27.8346C24.8587 28.0466 23.9987 28.2999 22.4387 28.3684C20.74 28.4421 20.24 28.4589 15.96 28.4589C11.6787 28.4589 11.1787 28.4395 9.48133 28.3633C7.92 28.2844 7.06 28.0324 6.5 27.8191C5.74133 27.5297 5.22 27.2001 4.66133 26.6572C4.1 26.1157 3.74133 25.5922 3.46133 24.8736C3.24133 24.3308 2.98267 23.4971 2.90133 21.9849C2.84133 20.3564 2.82 19.8536 2.82 15.7242C2.82 11.5935 2.84133 11.0894 2.90133 9.44147C2.98267 7.92928 3.24133 7.09692 3.46133 6.55408C3.74133 5.81737 4.1 5.31331 4.66133 4.76918C5.22 4.22763 5.74133 3.87866 6.5 3.60853C7.06 3.39398 7.90133 3.14195 9.46133 3.0644C11.1613 3.00624 11.6613 2.98685 15.94 2.98685L16 3.02563ZM16 7.77935C11.46 7.77935 7.784 11.3466 7.784 15.7436C7.784 20.1444 11.464 23.7078 16 23.7078C20.54 23.7078 24.216 20.1406 24.216 15.7436C24.216 11.3427 20.536 7.77935 16 7.77935ZM16 20.9134C13.0533 20.9134 10.6667 18.6 10.6667 15.7436C10.6667 12.8872 13.0533 10.5737 16 10.5737C18.9467 10.5737 21.3333 12.8872 21.3333 15.7436C21.3333 18.6 18.9467 20.9134 16 20.9134ZM26.4613 7.46527C26.4613 8.49279 25.6 9.32644 24.5413 9.32644C23.4813 9.32644 22.6213 8.4915 22.6213 7.46527C22.6213 6.43905 23.4827 5.6054 24.5413 5.6054C25.5987 5.60411 26.4613 6.43905 26.4613 7.46527Z" fill="white"/>
</svg>
