<svg width="33" height="26" viewBox="0 0 33 26" fill="none" xmlns="http://www.w3.org/2000/svg">
<path d="M31.395 4.7557C31.214 4.00335 30.857 3.31668 30.3597 2.76445C29.8625 2.21223 29.2424 1.81383 28.5617 1.60916C26.0636 0.865234 16.043 0.865234 16.043 0.865234C16.043 0.865234 6.02247 0.865234 3.523 1.60916C2.84261 1.81419 2.22293 2.21273 1.72595 2.76492C1.22897 3.31711 0.872116 4.00359 0.691076 4.7557C0.020813 7.53102 0.020813 13.3203 0.020813 13.3203C0.020813 13.3203 0.020813 19.1096 0.691076 21.8849C0.872109 22.6373 1.22912 23.3239 1.72637 23.8761C2.22361 24.4283 2.84363 24.8267 3.52434 25.0315C6.02247 25.7753 16.043 25.7753 16.043 25.7753C16.043 25.7753 26.0636 25.7753 28.5631 25.0315C29.2438 24.8269 29.8639 24.4285 30.3612 23.8764C30.8585 23.3241 31.2154 22.6373 31.3963 21.8849C32.0653 19.1096 32.0653 13.3203 32.0653 13.3203C32.0653 13.3203 32.0653 7.53102 31.395 4.7557ZM12.7652 18.5763V8.06432L21.1408 13.3203L12.7652 18.5763Z" fill="white"/>
</svg>
